<?xml version="1.0" encoding="iso-8859-1"?>
<!-- Generator: Adobe Illustrator 19.0.0, SVG Export Plug-In . SVG Version: 6.00 Build 0)  -->
<svg xmlns="http://www.w3.org/2000/svg" xmlns:xlink="http://www.w3.org/1999/xlink" version="1.1" id="Layer_1" x="0px" y="0px" viewBox="0 0 512 512" style="enable-background:new 0 0 512 512;" xml:space="preserve" width="512" height="512">
<g>
	<path d="M341.92,83.23c1.4,0.7,2.9,1.05,4.45,1.05c3.82,0,7.26-2.12,8.96-5.54c2.46-4.94,0.44-10.95-4.49-13.41   c-1.4-0.7-2.9-1.05-4.45-1.05c-3.83,0-7.26,2.12-8.96,5.54c-1.19,2.39-1.38,5.1-0.53,7.64C337.75,79.99,339.53,82.04,341.92,83.23z   "/>
	<path d="M467.822,202.075c0,0,14.832-40.768,14.878-40.895c4.33-11.902-14.37-18.995-18.79-6.84l-9.132,25.086   c-5.156-13.364-11.659-26.194-19.478-38.356c-13.19-20.52-29.669-38.509-48.979-53.459c-4.299-3.328-10.722-2.484-14.031,1.779   c-3.37,4.36-2.57,10.65,1.79,14.03c30.317,23.482,52.928,55.465,64.975,91.433c0,0-34.721-12.631-34.835-12.673   c-5.12-1.863-10.95,0.857-12.81,5.97c-0.905,2.487-0.787,5.257,0.33,7.65c1.13,2.42,3.13,4.26,5.64,5.17l27.887,10.151   C411.204,221.093,402,237.487,402,256c0,30.327,24.673,55,55,55s55-24.673,55-55C512,229.377,492.984,207.116,467.822,202.075z    M457,291c-19.299,0-35-15.701-35-35s15.701-35,35-35s35,15.701,35,35S476.299,291,457,291z"/>
	<path d="M256,110c30.327,0,55-24.673,55-55S286.327,0,256,0c-26.637,0-48.905,19.035-53.932,44.216L161.09,29.3   c-1.1-0.4-2.25-0.6-3.421-0.6c-4.147,0-7.972,2.676-9.389,6.58c-1.869,5.147,0.836,10.939,5.97,12.82l25.09,9.128   c-13.364,5.154-26.194,11.659-38.36,19.482c-20.52,13.19-38.51,29.669-53.459,48.969c-3.315,4.28-2.488,10.733,1.778,14.03   c4.329,3.346,10.675,2.543,14.031-1.78c23.482-30.325,55.464-52.943,91.431-64.986c0,0-12.656,34.766-12.681,34.836   c-2.264,6.22,2.758,13.43,9.4,13.43c4.19,0,7.97-2.65,9.4-6.59l10.182-27.968C221.029,100.76,237.451,110,256,110z M256,20   c19.299,0,35,15.701,35,35s-15.701,35-35,35s-35-15.701-35-35S236.701,20,256,20z"/>
	<path d="M69.73,174.58c1.4,0.69,2.9,1.05,4.45,1.05c3.82,0,7.26-2.13,8.96-5.55c2.46-4.93,0.44-10.95-4.5-13.41   c-1.39-0.69-2.89-1.05-4.44-1.05c-3.83,0-7.26,2.13-8.97,5.55C62.78,166.1,64.79,172.12,69.73,174.58z"/>
	<path d="M422.619,372.38c-4.324-3.347-10.696-2.521-14.03,1.79c-23.491,30.326-55.475,52.937-91.444,64.983l12.684-34.843   c1.89-5.18-0.79-10.93-5.981-12.81c-3.784-1.411-12.809,0.472-12.809,5.97l-10.132,27.836C290.938,411.221,274.531,402,256,402   c-30.327,0-55,24.673-55,55s24.673,55,55,55c26.595,0,48.837-18.975,53.91-44.096c0,0,40.761,14.832,40.909,14.886   c5.09,1.852,10.982-0.918,12.82-5.97c1.88-5.18-0.8-10.93-5.98-12.82l-25.089-9.133c13.367-5.155,26.202-11.659,38.369-19.477   c20.52-13.19,38.51-29.67,53.46-48.98C427.77,382.05,426.97,375.76,422.619,372.38z M256,492c-19.299,0-35-15.701-35-35   s15.701-35,35-35s35,15.701,35,35S275.299,492,256,492z"/>
	<path d="M442.19,337.52c-1.4-0.7-2.9-1.05-4.45-1.05c-3.83,0-7.26,2.12-8.96,5.54c-1.19,2.39-1.38,5.11-0.53,7.64   c0.84,2.53,2.63,4.58,5.02,5.77c1.4,0.7,2.9,1.05,4.45,1.05c3.82,0,7.26-2.12,8.96-5.54C449.14,345.99,447.12,339.98,442.19,337.52   z"/>
	<path d="M137.84,408.68c-30.327-23.491-52.944-55.476-64.993-91.444c0,0,34.744,12.648,34.843,12.684   c5.107,1.859,10.972-0.889,12.82-5.97c1.89-5.18-0.79-10.93-5.98-12.82l-27.918-10.164C100.743,291.002,110,274.567,110,256   c0-30.327-24.673-55-55-55S0,225.673,0,256c0,26.608,18.994,48.859,44.134,53.917L29.21,350.91c-1.88,5.18,0.8,10.93,5.979,12.82   c4.991,1.821,10.917-0.771,12.82-5.98l9.129-25.094c5.156,13.368,11.661,26.204,19.481,38.374   c13.19,20.52,29.67,38.509,48.969,53.459c4.264,3.303,10.749,2.449,14.031-1.779C143,418.35,142.2,412.05,137.84,408.68z M20,256   c0-19.299,15.701-35,35-35s35,15.701,35,35s-15.701,35-35,35S20,275.299,20,256z"/>
	<path d="M169.99,428.87c-1.4-0.7-2.89-1.05-4.45-1.05c-3.82,0-7.25,2.12-8.96,5.54c-2.45,4.93-0.44,10.94,4.49,13.41   c0,0,0,0,0.01,0c1.4,0.7,2.89,1.05,4.45,1.05c3.82,0,7.25-2.12,8.96-5.54c1.19-2.39,1.38-5.11,0.53-7.64   C174.17,432.11,172.38,430.06,169.99,428.87z"/>
</g>















</svg>
